<?xml version="1.0" encoding="UTF-8"?>
<!-- Created with Inkscape (http://www.inkscape.org/) -->
<svg width="602.89" height="143.08" version="1.1" viewBox="0 0 602.89 143.08" xml:space="preserve" xmlns="http://www.w3.org/2000/svg"><g transform="matrix(1.3333 0 0 -1.3333 0 143.08)"><g transform="translate(403.42 2e-4)"><path d="m0 0v8.563h6.812c9.375 0 11.188 2.187 11.188 13.062v16.688c0 8.749 6.562 14.562 19.25 14.812v1c-12.688 0.312-19.25 6.125-19.25 14.875v16.687c0 10.875-1.813 13.063-11.188 13.063h-6.812v8.562h8.5c15.187 0 20-4.812 20-20.25v-14c0-9.687 5.625-15.25 20.25-13.75v-11.312c-14.625 1.5-20.25-4.125-20.25-13.75v-14c0-15.438-4.813-20.25-20-20.25z" style="fill:#c1c1c1"/></g><g transform="translate(40.25)"><path d="m0 0c-15.188 0-20 4.812-20 20.25v14c0 9.625-5.625 15.25-20.25 13.75v11.313c14.625-1.5 20.25 4.062 20.25 13.75v14c0 15.437 4.812 20.25 20 20.25h8.5v-8.563h-6.813c-9.374 0-11.187-2.187-11.187-13.062v-16.688c0-8.75-6.562-14.562-19.25-14.875v-1c12.688-0.25 19.25-6.062 19.25-14.812v-16.688c0-10.875 1.813-13.062 11.187-13.062h6.813v-8.563z" style="fill:#c1c1c1"/></g><g transform="translate(184 19.836)"><path d="m0 0v27.891l-22.547 39.75h9.234l17.11-30.938h0.656l17.109 30.938h9.235l-22.547-39.75v-27.891z" style="fill:#326ce5"/></g><g transform="translate(256.94 46.32)"><path d="m0 0-9.469 31.219h-0.234l-9.516-31.219zm2.156-7.078h-23.531l-5.906-19.406h-8.391l21.797 67.64h8.812l21.797-67.64h-8.718z" style="fill:#326ce5"/></g><g transform="translate(130.71 36.488)"><path d="m0 0c-2.19-3.504-5.08-6.307-8.409-8.496l-5.518 13.226c-0.263 1.051 0.175 2.19 1.226 2.715 0.351 0.175 0.789 0.263 1.226 0.263l14.015-2.365c-0.525-1.927-1.401-3.679-2.54-5.343m-17.08-12.175c-2.015-0.438-4.03-0.701-6.132-0.701-3.065 0-6.044 0.526-8.847 1.402l6.92 12.525c0.701 0.788 1.84 1.139 2.803 0.613 0.438-0.263 0.788-0.613 1.051-0.963l6.745-12.175c-0.789-0.263-1.664-0.438-2.54-0.701m-31.971 17.43 13.927 2.365c1.138 0.088 2.19-0.7 2.452-1.839 0.088-0.526 0.088-0.963-0.087-1.401l-5.343-12.876c-4.905 3.153-8.847 7.97-10.949 13.751m2.365 23.738 10.423-9.285c0.964-0.788 1.051-2.277 0.263-3.241-0.263-0.35-0.613-0.613-1.051-0.701l-13.577-3.941c-0.525 5.956 0.788 12 3.942 17.168m17.255 12.438c0.964 0.175 1.84 0.35 2.803 0.525l-0.788-14.014c-0.088-1.227-1.051-2.278-2.365-2.278-0.351 0-0.788 0.088-1.051 0.263l-11.65 8.321c3.591 3.592 8.059 6.044 13.051 7.183m25.402-7.183-11.475-8.146c-0.963-0.613-2.277-0.438-3.065 0.526-0.263 0.263-0.351 0.613-0.438 0.963l-0.789 14.278c6.044-0.701 11.562-3.416 15.767-7.621m7.533-13.576c0.7-2.979 0.876-5.957 0.613-8.847l-13.402 3.854c-1.226 0.35-1.927 1.577-1.664 2.803 0.088 0.35 0.263 0.701 0.526 0.963l10.598 9.548c1.489-2.453 2.628-5.256 3.329-8.321m-22.862-9.11-3.854-1.839-3.854 1.839-0.963 4.117 2.627 3.328h4.292l2.628-3.328zm40.555-4.292c-0.087 0-0.087 0 0 0h-0.087c-0.088 0-0.176 0-0.176 0.088-0.175 0-0.35 0.087-0.525 0.087-0.613 0.088-1.139 0.175-1.664 0.175-0.263 0-0.526 0-0.876 0.088h-0.088c-1.839 0.175-3.328 0.35-4.73 0.788-0.613 0.263-0.788 0.614-0.963 0.964 0 0.087-0.088 0.087-0.088 0.175l-1.139 0.35c0.526 4.03 0.351 8.234-0.613 12.351-0.963 4.117-2.628 7.971-4.905 11.474l0.876 0.789v0.175c0 0.438 0.088 0.876 0.438 1.314 1.051 0.963 2.365 1.752 3.942 2.715 0.262 0.175 0.525 0.263 0.788 0.438 0.525 0.263 0.963 0.526 1.489 0.876 0.088 0.088 0.263 0.175 0.438 0.35 0.087 0.088 0.175 0.088 0.175 0.175 1.226 1.052 1.489 2.803 0.613 3.942-0.438 0.613-1.226 0.964-2.014 0.964-0.701 0-1.314-0.263-1.927-0.701-0.088-0.088-0.088-0.088-0.176-0.175-0.175-0.088-0.262-0.263-0.438-0.351-0.437-0.438-0.788-0.788-1.138-1.226-0.175-0.175-0.351-0.438-0.613-0.613-1.227-1.314-2.365-2.365-3.504-3.153-0.263-0.176-0.526-0.263-0.788-0.263-0.176 0-0.351 0-0.526 0.087h-0.175l-1.051-0.7c-1.139 1.226-2.365 2.277-3.591 3.328-5.256 4.117-11.65 6.657-18.307 7.27l-0.088 1.139c-0.087 0.088-0.087 0.088-0.175 0.175-0.263 0.263-0.613 0.526-0.701 1.139-0.087 1.401 0.088 2.978 0.263 4.73v0.087c0 0.263 0.088 0.613 0.175 0.876 0.088 0.526 0.176 1.051 0.263 1.665v0.788c0 1.576-1.226 2.89-2.715 2.89-0.701 0-1.402-0.35-1.927-0.876-0.526-0.525-0.789-1.226-0.789-2.014v-0.701c0-0.613 0.088-1.139 0.263-1.664 0.088-0.263 0.088-0.526 0.175-0.876v-0.088c0.176-1.751 0.438-3.328 0.263-4.73-0.087-0.613-0.438-0.876-0.701-1.138-0.087-0.088-0.087-0.088-0.175-0.175l-0.087-1.139c-1.577-0.175-3.154-0.351-4.73-0.701-6.745-1.489-12.701-4.905-17.343-9.81l-0.876 0.613h-0.175c-0.176 0-0.351-0.088-0.526-0.088-0.263 0-0.526 0.088-0.788 0.263-1.139 0.789-2.278 1.927-3.504 3.241-0.175 0.175-0.35 0.438-0.613 0.613-0.35 0.438-0.701 0.789-1.139 1.227-0.087 0.087-0.263 0.175-0.438 0.35-0.087 0.087-0.175 0.087-0.175 0.175-0.525 0.438-1.226 0.701-1.927 0.701-0.788 0-1.577-0.351-2.015-0.964-0.875-1.138-0.613-2.89 0.614-3.941 0.087 0 0.087-0.088 0.175-0.088 0.175-0.088 0.263-0.263 0.438-0.35 0.525-0.351 0.963-0.613 1.489-0.876 0.263-0.088 0.525-0.263 0.788-0.438 1.577-0.964 2.891-1.752 3.942-2.716 0.438-0.437 0.438-0.875 0.438-1.313v-0.176l0.876-0.788c-0.176-0.263-0.351-0.438-0.438-0.701-4.38-6.919-6.044-15.065-4.905-23.124l-1.139-0.35c0-0.088-0.088-0.088-0.088-0.175-0.175-0.351-0.438-0.701-0.963-0.964-1.314-0.438-2.891-0.613-4.73-0.788h-0.088c-0.263 0-0.613 0-0.876-0.088-0.525 0-1.051-0.087-1.664-0.175-0.175 0-0.35-0.088-0.526-0.088-0.087 0-0.175 0-0.262-0.087-1.577-0.35-2.54-1.84-2.278-3.241 0.263-1.226 1.402-2.015 2.803-2.015 0.263 0 0.438 0 0.701 0.088 0.088 0 0.175 0 0.175 0.088 0.175 0 0.351 0.087 0.526 0.087 0.613 0.175 1.051 0.351 1.576 0.613 0.263 0.088 0.526 0.263 0.789 0.351h0.087c1.665 0.613 3.154 1.138 4.555 1.314h0.175c0.526 0 0.876-0.263 1.139-0.438 0.088 0 0.088-0.088 0.175-0.088l1.226 0.175c2.103-6.482 6.132-12.263 11.475-16.467 1.226-0.964 2.452-1.752 3.766-2.54l-0.525-1.139c0-0.087 0.087-0.087 0.087-0.175 0.176-0.35 0.351-0.788 0.176-1.402-0.526-1.313-1.314-2.627-2.278-4.116v-0.088c-0.175-0.263-0.35-0.438-0.525-0.701-0.351-0.438-0.614-0.876-0.964-1.401-0.088-0.088-0.175-0.263-0.263-0.438 0-0.088-0.087-0.175-0.087-0.175-0.701-1.489-0.175-3.154 1.138-3.767 0.351-0.175 0.701-0.262 1.052-0.262 1.051 0 2.102 0.7 2.627 1.664 0 0.087 0.088 0.175 0.088 0.175 0.087 0.175 0.175 0.35 0.263 0.438 0.262 0.613 0.35 1.051 0.525 1.577 0.088 0.262 0.175 0.525 0.263 0.788 0.613 1.752 1.051 3.153 1.839 4.379 0.351 0.526 0.789 0.614 1.139 0.789 0.088 0 0.088 0 0.175 0.087l0.613 1.139c3.854-1.489 8.059-2.277 12.263-2.277 2.54 0 5.168 0.262 7.621 0.876 1.576 0.35 3.065 0.788 4.554 1.313l0.526-0.963c0.088 0 0.088 0 0.175-0.088 0.438-0.087 0.788-0.262 1.139-0.788 0.701-1.226 1.226-2.715 1.839-4.38v-0.087c0.088-0.263 0.175-0.526 0.263-0.788 0.175-0.526 0.263-1.052 0.526-1.577 0.087-0.175 0.175-0.263 0.262-0.438 0-0.088 0.088-0.175 0.088-0.175 0.526-1.051 1.577-1.664 2.628-1.664 0.35 0 0.7 0.087 1.051 0.262 0.613 0.351 1.138 0.876 1.314 1.577 0.175 0.701 0.175 1.489-0.176 2.19 0 0.087-0.087 0.087-0.087 0.175-0.088 0.175-0.175 0.35-0.263 0.438-0.263 0.525-0.613 0.963-0.963 1.401-0.176 0.263-0.351 0.438-0.526 0.701v0.088c-0.963 1.489-1.839 2.803-2.277 4.116-0.175 0.614 0 0.964 0.087 1.402 0 0.088 0.088 0.088 0.088 0.175l-0.438 1.051c4.642 2.716 8.584 6.57 11.562 11.3 1.577 2.452 2.803 5.167 3.679 7.883l1.051-0.175c0.088 0 0.088 0.087 0.175 0.087 0.35 0.175 0.613 0.438 1.139 0.438h0.175c1.401-0.175 2.891-0.701 4.555-1.314h0.087c0.263-0.087 0.526-0.263 0.789-0.35 0.525-0.263 0.963-0.438 1.576-0.613 0.175 0 0.351-0.088 0.526-0.088 0.087 0 0.175 0 0.263-0.087 0.262-0.088 0.438-0.088 0.7-0.088 1.314 0 2.453 0.876 2.803 2.015 0 1.051-0.963 2.452-2.54 2.89" style="fill:#326ce5"/></g><g transform="translate(287.27 19.836)" style="fill:#326ce5"><path d="m0 0v67.641h8.109v-33.657h0.61l27.375 33.657h9.656l-25.031-29.907 27.469-37.734h-10.266l-22.781 31.359-7.032-8.343v-23.016z" style="fill:#326ce5"/></g><g transform="scale(1,-1)" style="fill:#326ce5;stroke-width:2.3721" aria-label="D"><path d="m363.6-87.354q6.5789 0 11.999 2.0849 5.467 2.0385 9.3587 5.9302 3.938 3.8917 6.0692 9.4513 2.1775 5.5133 2.1775 12.463v7.6445q0 6.9495-2.1775 12.509-2.1312 5.5133-6.0692 9.405-3.9381 3.8454-9.4977 5.9302-5.5133 2.0385-12.277 2.0385h-19.088v-67.457zm-10.471 7.5055v52.446h10.054q5.0963 0 8.988-1.4826 3.9381-1.5289 6.5789-4.4014 2.6871-2.8725 4.0307-7.0422 1.3899-4.1697 1.3899-9.4513v-7.7371q0-5.4206-1.3899-9.5903t-4.0307-6.9958q-2.6408-2.8261-6.4862-4.2624-3.7991-1.4826-8.6637-1.4826z"/></g></g></svg>
