<?xml version="1.0" encoding="UTF-8" standalone="no"?>
<!-- Created with Inkscape (http://www.inkscape.org/) -->

<svg
   version="1.1"
   id="svg39"
   xml:space="preserve"
   width="602.89069"
   height="143.08267"
   viewBox="0 0 602.89069 143.08267"
   sodipodi:docname="YAKD-Logo.ai.svg"
   inkscape:version="1.1.2 (0a00cf5339, 2022-02-04)"
   xmlns:inkscape="http://www.inkscape.org/namespaces/inkscape"
   xmlns:sodipodi="http://sodipodi.sourceforge.net/DTD/sodipodi-0.dtd"
   xmlns="http://www.w3.org/2000/svg"
   xmlns:svg="http://www.w3.org/2000/svg"><defs
     id="defs43"><clipPath
       clipPathUnits="userSpaceOnUse"
       id="clipPath53"><path
         d="M 0,107.312 H 452.168 V 0 H 0 Z"
         id="path51" /></clipPath></defs><sodipodi:namedview
     id="namedview41"
     pagecolor="#ffffff"
     bordercolor="#666666"
     borderopacity="1.0"
     inkscape:pageshadow="2"
     inkscape:pageopacity="0.0"
     inkscape:pagecheckerboard="0"
     showgrid="false"
     showguides="true"
     inkscape:guide-bbox="true"
     inkscape:zoom="2.4299596"
     inkscape:cx="332.92735"
     inkscape:cy="62.552481"
     inkscape:window-width="1920"
     inkscape:window-height="979"
     inkscape:window-x="1920"
     inkscape:window-y="32"
     inkscape:window-maximized="1"
     inkscape:current-layer="g47"><sodipodi:guide
       position="393.83839,116.63586"
       orientation="0,-1"
       id="guide5521" /><sodipodi:guide
       position="393.83839,26.447868"
       orientation="0,-1"
       id="guide5523" /></sodipodi:namedview><g
     id="g45"
     inkscape:groupmode="layer"
     inkscape:label="YAKD-Logo"
     transform="matrix(1.3333333,0,0,-1.3333333,0,143.08267)"><g
       id="g47"><g
         id="g55"
         transform="translate(403.4185,2e-4)"><path
           d="M 0,0 V 8.563 H 6.812 C 16.187,8.563 18,10.75 18,21.625 v 16.688 c 0,8.749 6.562,14.562 19.25,14.812 v 1 C 24.562,54.437 18,60.25 18,69 V 85.687 C 18,96.562 16.187,98.75 6.812,98.75 H 0 v 8.562 h 8.5 c 15.187,0 20,-4.812 20,-20.25 v -14 c 0,-9.687 5.625,-15.25 20.25,-13.75 V 48 C 34.125,49.5 28.5,43.875 28.5,34.25 v -14 C 28.5,4.812 23.687,0 8.5,0 Z"
           style="fill:#c1c1c1;fill-opacity:1;fill-rule:nonzero;stroke:none"
           id="path57" /></g><g
         id="g59"
         transform="translate(40.25)"><path
           d="m 0,0 c -15.188,0 -20,4.812 -20,20.25 v 14 c 0,9.625 -5.625,15.25 -20.25,13.75 v 11.313 c 14.625,-1.5 20.25,4.062 20.25,13.75 v 14 c 0,15.437 4.812,20.25 20,20.25 H 8.5 V 98.75 H 1.687 C -7.687,98.75 -9.5,96.563 -9.5,85.688 V 69 c 0,-8.75 -6.562,-14.562 -19.25,-14.875 v -1 C -16.062,52.875 -9.5,47.063 -9.5,38.313 V 21.625 C -9.5,10.75 -7.687,8.563 1.687,8.563 H 8.5 V 0 Z"
           style="fill:#c1c1c1;fill-opacity:1;fill-rule:nonzero;stroke:none"
           id="path61" /></g><g
         id="g63"
         transform="translate(184.0042,19.8359)"><path
           d="m 0,0 v 27.891 l -22.547,39.75 h 9.234 L 3.797,36.703 h 0.656 l 17.109,30.938 h 9.235 L 8.25,27.891 V 0 Z"
           style="fill:#326ce5;fill-opacity:1;fill-rule:nonzero;stroke:none"
           id="path65" /></g><g
         id="g67"
         transform="translate(256.9417,46.3203)"><path
           d="M 0,0 -9.469,31.219 H -9.703 L -19.219,0 Z m 2.156,-7.078 h -23.531 l -5.906,-19.406 h -8.391 l 21.797,67.64 h 8.812 l 21.797,-67.64 H 8.016 Z"
           style="fill:#326ce5;fill-opacity:1;fill-rule:nonzero;stroke:none"
           id="path69" /></g><g
         id="g79"
         transform="translate(130.7081,36.4883)"><path
           d="M 0,0 C -2.19,-3.504 -5.08,-6.307 -8.409,-8.496 L -13.927,4.73 c -0.263,1.051 0.175,2.19 1.226,2.715 0.351,0.175 0.789,0.263 1.226,0.263 L 2.54,5.343 C 2.015,3.416 1.139,1.664 0,0 m -17.08,-12.175 c -2.015,-0.438 -4.03,-0.701 -6.132,-0.701 -3.065,0 -6.044,0.526 -8.847,1.402 l 6.92,12.525 c 0.701,0.788 1.84,1.139 2.803,0.613 0.438,-0.263 0.788,-0.613 1.051,-0.963 l 6.745,-12.175 c -0.789,-0.263 -1.664,-0.438 -2.54,-0.701 m -31.971,17.43 13.927,2.365 c 1.138,0.088 2.19,-0.7 2.452,-1.839 0.088,-0.526 0.088,-0.963 -0.087,-1.401 l -5.343,-12.876 c -4.905,3.153 -8.847,7.97 -10.949,13.751 m 2.365,23.738 10.423,-9.285 c 0.964,-0.788 1.051,-2.277 0.263,-3.241 -0.263,-0.35 -0.613,-0.613 -1.051,-0.701 l -13.577,-3.941 c -0.525,5.956 0.788,12 3.942,17.168 m 17.255,12.438 c 0.964,0.175 1.84,0.35 2.803,0.525 l -0.788,-14.014 c -0.088,-1.227 -1.051,-2.278 -2.365,-2.278 -0.351,0 -0.788,0.088 -1.051,0.263 l -11.65,8.321 c 3.591,3.592 8.059,6.044 13.051,7.183 m 25.402,-7.183 -11.475,-8.146 c -0.963,-0.613 -2.277,-0.438 -3.065,0.526 -0.263,0.263 -0.351,0.613 -0.438,0.963 l -0.789,14.278 c 6.044,-0.701 11.562,-3.416 15.767,-7.621 M 3.504,20.672 c 0.7,-2.979 0.876,-5.957 0.613,-8.847 l -13.402,3.854 c -1.226,0.35 -1.927,1.577 -1.664,2.803 0.088,0.35 0.263,0.701 0.526,0.963 L 0.175,28.993 C 1.664,26.54 2.803,23.737 3.504,20.672 m -22.862,-9.11 -3.854,-1.839 -3.854,1.839 -0.963,4.117 2.627,3.328 h 4.292 l 2.628,-3.328 z M 21.197,7.27 v 0 c -0.087,0 -0.087,0 0,0 H 21.11 c -0.088,0 -0.176,0 -0.176,0.088 -0.175,0 -0.35,0.087 -0.525,0.087 -0.613,0.088 -1.139,0.175 -1.664,0.175 -0.263,0 -0.526,0 -0.876,0.088 H 17.781 C 15.942,7.883 14.453,8.058 13.051,8.496 12.438,8.759 12.263,9.11 12.088,9.46 12.088,9.547 12,9.547 12,9.635 l -1.139,0.35 c 0.526,4.03 0.351,8.234 -0.613,12.351 C 9.285,26.453 7.62,30.307 5.343,33.81 l 0.876,0.789 v 0.175 c 0,0.438 0.088,0.876 0.438,1.314 1.051,0.963 2.365,1.752 3.942,2.715 0.262,0.175 0.525,0.263 0.788,0.438 0.525,0.263 0.963,0.526 1.489,0.876 0.088,0.088 0.263,0.175 0.438,0.35 0.087,0.088 0.175,0.088 0.175,0.175 1.226,1.052 1.489,2.803 0.613,3.942 -0.438,0.613 -1.226,0.964 -2.014,0.964 -0.701,0 -1.314,-0.263 -1.927,-0.701 C 10.073,44.759 10.073,44.759 9.985,44.672 9.81,44.584 9.723,44.409 9.547,44.321 9.11,43.883 8.759,43.533 8.409,43.095 8.234,42.92 8.058,42.657 7.796,42.482 6.569,41.168 5.431,40.117 4.292,39.329 4.029,39.153 3.766,39.066 3.504,39.066 c -0.176,0 -0.351,0 -0.526,0.087 H 2.803 l -1.051,-0.7 c -1.139,1.226 -2.365,2.277 -3.591,3.328 -5.256,4.117 -11.65,6.657 -18.307,7.27 l -0.088,1.139 c -0.087,0.088 -0.087,0.088 -0.175,0.175 -0.263,0.263 -0.613,0.526 -0.701,1.139 -0.087,1.401 0.088,2.978 0.263,4.73 v 0.087 c 0,0.263 0.088,0.613 0.175,0.876 0.088,0.526 0.176,1.051 0.263,1.665 v 0.525 0.263 c 0,1.576 -1.226,2.89 -2.715,2.89 -0.701,0 -1.402,-0.35 -1.927,-0.876 -0.526,-0.525 -0.789,-1.226 -0.789,-2.014 v -0.175 -0.526 c 0,-0.613 0.088,-1.139 0.263,-1.664 0.088,-0.263 0.088,-0.526 0.175,-0.876 v -0.088 c 0.176,-1.751 0.438,-3.328 0.263,-4.73 -0.087,-0.613 -0.438,-0.876 -0.701,-1.138 -0.087,-0.088 -0.087,-0.088 -0.175,-0.175 l -0.087,-1.139 c -1.577,-0.175 -3.154,-0.351 -4.73,-0.701 -6.745,-1.489 -12.701,-4.905 -17.343,-9.81 l -0.876,0.613 h -0.175 c -0.176,0 -0.351,-0.088 -0.526,-0.088 -0.263,0 -0.526,0.088 -0.788,0.263 -1.139,0.789 -2.278,1.927 -3.504,3.241 -0.175,0.175 -0.35,0.438 -0.613,0.613 -0.35,0.438 -0.701,0.789 -1.139,1.227 -0.087,0.087 -0.263,0.175 -0.438,0.35 -0.087,0.087 -0.175,0.087 -0.175,0.175 -0.525,0.438 -1.226,0.701 -1.927,0.701 -0.788,0 -1.577,-0.351 -2.015,-0.964 -0.875,-1.138 -0.613,-2.89 0.614,-3.941 0.087,0 0.087,-0.088 0.175,-0.088 0.175,-0.088 0.263,-0.263 0.438,-0.35 0.525,-0.351 0.963,-0.613 1.489,-0.876 0.263,-0.088 0.525,-0.263 0.788,-0.438 1.577,-0.964 2.891,-1.752 3.942,-2.716 0.438,-0.437 0.438,-0.875 0.438,-1.313 v -0.176 l 0.876,-0.788 c -0.176,-0.263 -0.351,-0.438 -0.438,-0.701 -4.38,-6.919 -6.044,-15.065 -4.905,-23.124 l -1.139,-0.35 c 0,-0.088 -0.088,-0.088 -0.088,-0.175 -0.175,-0.351 -0.438,-0.701 -0.963,-0.964 -1.314,-0.438 -2.891,-0.613 -4.73,-0.788 h -0.088 c -0.263,0 -0.613,0 -0.876,-0.088 -0.525,0 -1.051,-0.087 -1.664,-0.175 -0.175,0 -0.35,-0.088 -0.526,-0.088 -0.087,0 -0.175,0 -0.262,-0.087 -1.577,-0.35 -2.54,-1.84 -2.278,-3.241 0.263,-1.226 1.402,-2.015 2.803,-2.015 0.263,0 0.438,0 0.701,0.088 0.088,0 0.175,0 0.175,0.088 0.175,0 0.351,0.087 0.526,0.087 0.613,0.175 1.051,0.351 1.576,0.613 0.263,0.088 0.526,0.263 0.789,0.351 h 0.087 c 1.665,0.613 3.154,1.138 4.555,1.314 h 0.175 c 0.526,0 0.876,-0.263 1.139,-0.438 0.088,0 0.088,-0.088 0.175,-0.088 l 1.226,0.175 c 2.103,-6.482 6.132,-12.263 11.475,-16.467 1.226,-0.964 2.452,-1.752 3.766,-2.54 l -0.525,-1.139 c 0,-0.087 0.087,-0.087 0.087,-0.175 0.176,-0.35 0.351,-0.788 0.176,-1.402 -0.526,-1.313 -1.314,-2.627 -2.278,-4.116 v -0.088 c -0.175,-0.263 -0.35,-0.438 -0.525,-0.701 -0.351,-0.438 -0.614,-0.876 -0.964,-1.401 -0.088,-0.088 -0.175,-0.263 -0.263,-0.438 0,-0.088 -0.087,-0.175 -0.087,-0.175 -0.701,-1.489 -0.175,-3.154 1.138,-3.767 0.351,-0.175 0.701,-0.262 1.052,-0.262 1.051,0 2.102,0.7 2.627,1.664 0,0.087 0.088,0.175 0.088,0.175 0.087,0.175 0.175,0.35 0.263,0.438 0.262,0.613 0.35,1.051 0.525,1.577 0.088,0.262 0.175,0.525 0.263,0.788 0.613,1.752 1.051,3.153 1.839,4.379 0.351,0.526 0.789,0.614 1.139,0.789 0.088,0 0.088,0 0.175,0.087 l 0.613,1.139 c 3.854,-1.489 8.059,-2.277 12.263,-2.277 2.54,0 5.168,0.262 7.621,0.876 1.576,0.35 3.065,0.788 4.554,1.313 l 0.526,-0.963 c 0.088,0 0.088,0 0.175,-0.088 0.438,-0.087 0.788,-0.262 1.139,-0.788 0.701,-1.226 1.226,-2.715 1.839,-4.38 v -0.087 c 0.088,-0.263 0.175,-0.526 0.263,-0.788 0.175,-0.526 0.263,-1.052 0.526,-1.577 0.087,-0.175 0.175,-0.263 0.262,-0.438 0,-0.088 0.088,-0.175 0.088,-0.175 0.526,-1.051 1.577,-1.664 2.628,-1.664 0.35,0 0.7,0.087 1.051,0.262 0.613,0.351 1.138,0.876 1.314,1.577 0.175,0.701 0.175,1.489 -0.176,2.19 0,0.087 -0.087,0.087 -0.087,0.175 -0.088,0.175 -0.175,0.35 -0.263,0.438 -0.263,0.525 -0.613,0.963 -0.963,1.401 -0.176,0.263 -0.351,0.438 -0.526,0.701 v 0.088 c -0.963,1.489 -1.839,2.803 -2.277,4.116 -0.175,0.614 0,0.964 0.087,1.402 0,0.088 0.088,0.088 0.088,0.175 l -0.438,1.051 c 4.642,2.716 8.584,6.57 11.562,11.3 1.577,2.452 2.803,5.167 3.679,7.883 L 10.949,4.38 c 0.088,0 0.088,0.087 0.175,0.087 0.35,0.175 0.613,0.438 1.139,0.438 h 0.175 C 13.839,4.73 15.329,4.204 16.993,3.591 h 0.087 c 0.263,-0.087 0.526,-0.263 0.789,-0.35 0.525,-0.263 0.963,-0.438 1.576,-0.613 0.175,0 0.351,-0.088 0.526,-0.088 0.087,0 0.175,0 0.263,-0.087 0.262,-0.088 0.438,-0.088 0.7,-0.088 1.314,0 2.453,0.876 2.803,2.015 0,1.051 -0.963,2.452 -2.54,2.89"
           style="fill:#326ce5;fill-opacity:1;fill-rule:nonzero;stroke:none"
           id="path81" /></g><g
         id="g71"
         transform="translate(287.2698,19.8359)"
         style="fill:#326ce5;fill-opacity:1"><path
           d="M 0,0 V 67.641 H 8.109 V 33.984 h 0.61 L 36.094,67.641 H 45.75 L 20.719,37.734 48.188,0 H 37.922 L 15.141,31.359 8.109,23.016 V 0 Z"
           style="fill:#326ce5;fill-opacity:1;fill-rule:nonzero;stroke:none"
           id="path73" /></g><text
         xml:space="preserve"
         style="font-style:normal;font-weight:normal;font-size:94.884px;line-height:1.25;font-family:sans-serif;fill:#326ce5;fill-opacity:1;stroke:none;stroke-width:2.3721"
         x="336.03198"
         y="-19.897692"
         id="text1323"
         transform="scale(1,-1)"><tspan
           sodipodi:role="line"
           id="tspan1321"
           style="font-style:normal;font-variant:normal;font-weight:500;font-stretch:normal;font-family:'Bert Sans';-inkscape-font-specification:'Bert Sans Medium';stroke-width:2.3721;fill:#326ce5;fill-opacity:1"
           x="336.03198"
           y="-19.897692">D</tspan></text></g></g></svg>
